<?xml version="1.0" encoding="UTF-8" standalone="no"?>
<!-- Creator: CorelDRAW X8 -->

<svg
   xmlns:dc="http://purl.org/dc/elements/1.1/"
   xmlns:cc="http://creativecommons.org/ns#"
   xmlns:rdf="http://www.w3.org/1999/02/22-rdf-syntax-ns#"
   xmlns:svg="http://www.w3.org/2000/svg"
   xmlns="http://www.w3.org/2000/svg"
   xmlns:sodipodi="http://sodipodi.sourceforge.net/DTD/sodipodi-0.dtd"
   xmlns:inkscape="http://www.inkscape.org/namespaces/inkscape"
   xml:space="preserve"
   width="35.044453mm"
   height="7.660522mm"
   version="1.1"
   style="clip-rule:evenodd;fill-rule:evenodd;image-rendering:optimizeQuality;shape-rendering:geometricPrecision;text-rendering:geometricPrecision"
   viewBox="0 0 6830.0002 766.20616"
   id="svg24"
   sodipodi:docname="logo-horizontal.svg"
   inkscape:version="0.92.3 (2405546, 2018-03-11)"><metadata
   id="metadata28"><rdf:RDF><cc:Work
       rdf:about=""><dc:format>image/svg+xml</dc:format><dc:type
         rdf:resource="http://purl.org/dc/dcmitype/StillImage" /></cc:Work></rdf:RDF></metadata><sodipodi:namedview
   pagecolor="#ffffff"
   bordercolor="#666666"
   borderopacity="1"
   objecttolerance="10"
   gridtolerance="10"
   guidetolerance="10"
   inkscape:pageopacity="0"
   inkscape:pageshadow="2"
   inkscape:window-width="1680"
   inkscape:window-height="985"
   id="namedview26"
   showgrid="false"
   inkscape:zoom="2.8811716"
   inkscape:cx="230.88764"
   inkscape:cy="-71.913647"
   inkscape:window-x="0"
   inkscape:window-y="0"
   inkscape:window-maximized="1"
   inkscape:current-layer="svg24" />
 <defs
   id="defs4">
  <style
   type="text/css"
   id="style2">
   <![CDATA[
    .fil0 {fill:#007B91}
    .fil1 {fill:#FF6600}
    .fil2 {fill:#007B91;fill-rule:nonzero}
   ]]>
  </style>
 </defs>
 <g
   id="Capa_x0020_1"
   transform="translate(0,-363.39687)">
  <metadata
   id="CorelCorpID_0Corel-Layer" />
  <polygon
   class="fil0"
   points="312,286 799,1493 0,1493 20,0 1520,0 1520,782 "
   id="polygon7"
   style="fill:#007b91" />
  <polygon
   class="fil1"
   points="879,1450 458,431 1474,862 1054,1027 "
   id="polygon9"
   style="fill:#ff6600" />
  <path
   class="fil2"
   d="m 5792,1325 h 188 V 619 h 217 V 459 h -217 v -97 c 0,-117 2,-152 217,-196 V 0 c -341,61 -405,142 -405,339 v 120 h -146 v 160 h 146 z m 837,9 c 59,0 118,-2 201,-15 v -156 c -74,9 -113,11 -148,11 -53,0 -77,-24 -77,-128 0,-143 0,-427 0,-427 h 224 V 459 h -224 c 0,-48 0,-294 0,-294 l -187,1 c 0,0 0,250 0,293 h -153 v 160 h 153 c 0,0 0,409 0,462 0,176 65,253 211,253 z"
   id="path11"
   inkscape:connector-curvature="0"
   style="fill:#007b91;fill-rule:nonzero" />
  <path
   class="fil2"
   d="m 2239,1341 c 153,0 319,-81 367,-107 l -1,91 h 179 V 81 h -188 v 435 c -49,-21 -200,-78 -350,-78 -145,0 -289,54 -289,452 0,400 134,451 282,451 z m 72,-167 c -118,0 -162,-46 -162,-288 0,-238 48,-287 164,-287 105,0 235,40 283,59 v 440 c -59,30 -180,76 -285,76 z"
   id="path13"
   inkscape:connector-curvature="0"
   style="fill:#007b91;fill-rule:nonzero" />
  <path
   class="fil2"
   d="m 3377,1345 c 99,0 225,-23 284,-39 v -153 c -65,17 -196,32 -282,32 -159,0 -245,-45 -247,-271 h 582 c 0,-11 0,-70 0,-85 0,-308 -123,-407 -378,-407 -228,0 -394,108 -394,462 0,345 138,461 435,461 z M 3135,790 c 13,-177 87,-221 196,-221 140,0 195,46 195,221 z"
   id="path15"
   inkscape:connector-curvature="0"
   style="fill:#007b91;fill-rule:nonzero" />
  <path
   class="fil2"
   d="m 4187,1341 c 258,0 393,-44 393,-282 0,-177 -69,-230 -314,-259 -188,-23 -223,-32 -223,-118 0,-80 41,-107 172,-107 88,0 253,16 312,27 V 456 c -49,-13 -176,-27 -309,-27 -234,0 -355,65 -355,258 0,203 72,234 344,273 151,22 187,37 187,110 0,102 -39,128 -205,128 -109,0 -274,-31 -324,-46 v 146 c 59,20 199,43 322,43 z"
   id="path17"
   inkscape:connector-curvature="0"
   style="fill:#007b91;fill-rule:nonzero" />
  <path
   class="fil2"
   d="m 5132,1345 c 289,0 437,-123 437,-464 0,-339 -144,-459 -433,-459 -290,0 -441,123 -441,462 0,341 148,461 437,461 z m 4,-153 c -152,0 -249,-55 -249,-311 0,-255 94,-304 245,-304 151,0 247,53 247,307 0,256 -92,308 -243,308 z"
   id="path19"
   inkscape:connector-curvature="0"
   style="fill:#007b91;fill-rule:nonzero" />
  
 </g>
</svg>